<mxfile host="app.diagrams.net" modified="2024-07-17T13:52:23.311Z" agent="Mozilla/5.0 (Windows NT 10.0; Win64; x64) AppleWebKit/537.36 (KHTML, like Gecko) Chrome/126.0.0.0 Safari/537.36" version="24.7.1" etag="VxGYweHeYqX9Iy_XbIcp" type="github">
  <diagram name="PÃ¡gina-1" id="MzipqrHYCJL4C35vW4M_">
    <mxGraphModel>
      <root>
        <mxCell id="0" />
        <mxCell id="1" parent="0" />
      </root>
    </mxGraphModel>
  </diagram>
</mxfile>
